<svg width="29" height="29" viewBox="0 0 29 29" fill="none" xmlns="http://www.w3.org/2000/svg">
<g clip-path="url(#clip0_1_54)">
<path d="M11 0H2C0.89543 0 0 0.89543 0 2V11C0 12.1046 0.89543 13 2 13H11C12.1046 13 13 12.1046 13 11V2C13 0.89543 12.1046 0 11 0Z" fill="#4478FF"/>
<path d="M11 16H2C0.89543 16 0 16.8954 0 18V27C0 28.1046 0.89543 29 2 29H11C12.1046 29 13 28.1046 13 27V18C13 16.8954 12.1046 16 11 16Z" fill="#4478FF"/>
<path d="M27 0H18C16.8954 0 16 0.89543 16 2V11C16 12.1046 16.8954 13 18 13H27C28.1046 13 29 12.1046 29 11V2C29 0.89543 28.1046 0 27 0Z" fill="#4478FF"/>
<path d="M27 16H18C16.8954 16 16 16.8954 16 18V27C16 28.1046 16.8954 29 18 29H27C28.1046 29 29 28.1046 29 27V18C29 16.8954 28.1046 16 27 16Z" fill="#4478FF"/>
</g>
<defs>
<clipPath id="clip0_1_54">
<rect width="29" height="29" fill="white"/>
</clipPath>
</defs>
</svg>
