<svg width="12" height="14" viewBox="0 0 12 14" fill="none" xmlns="http://www.w3.org/2000/svg">
<g clip-path="url(#clip0_1_51)">
<path d="M1 5L0.531479 4.41435C0.353567 4.55668 0.25 4.77216 0.25 5H1ZM1 13H0.25C0.25 13.4142 0.585786 13.75 1 13.75V13ZM11 13V13.75C11.4142 13.75 11.75 13.4142 11.75 13H11ZM11 5H11.75C11.75 4.77216 11.6464 4.55668 11.4685 4.41435L11 5ZM6 1L6.46852 0.414348C6.19461 0.195217 5.80539 0.195217 5.53148 0.414348L6 1ZM4.33333 8.66667V7.91667C3.91912 7.91667 3.58333 8.25245 3.58333 8.66667H4.33333ZM4.33333 13H3.58333C3.58333 13.4142 3.91912 13.75 4.33333 13.75V13ZM7.66667 13V13.75C8.08088 13.75 8.41667 13.4142 8.41667 13H7.66667ZM7.66667 8.66667H8.41667C8.41667 8.25245 8.08088 7.91667 7.66667 7.91667V8.66667ZM0.25 5V13H1.75V5H0.25ZM1 13.75H11V12.25H1V13.75ZM11.75 13V5H10.25V13H11.75ZM11.4685 4.41435L6.46852 0.414348L5.53148 1.58565L10.5315 5.58565L11.4685 4.41435ZM5.53148 0.414348L0.531479 4.41435L1.46852 5.58565L6.46852 1.58565L5.53148 0.414348ZM3.58333 8.66667V13H5.08333V8.66667H3.58333ZM4.33333 13.75H7.66667V12.25H4.33333V13.75ZM8.41667 13V8.66667H6.91667V13H8.41667ZM7.66667 7.91667H4.33333V9.41667H7.66667V7.91667Z" fill="#888888"/>
</g>
<defs>
<clipPath id="clip0_1_51">
<rect width="12" height="14" fill="white"/>
</clipPath>
</defs>
</svg>
