<svg width="53" height="53" viewBox="0 0 53 53" fill="none" xmlns="http://www.w3.org/2000/svg">
<circle cx="26.5" cy="26.5" r="26.5" fill="#142143"/>
<g clip-path="url(#clip0_2079_34)">
<path fill-rule="evenodd" clip-rule="evenodd" d="M32.4511 16.33H20.528C17.894 16.33 15.7588 18.4653 15.7588 21.0993V33.0223C15.7588 35.6563 17.894 37.7916 20.528 37.7916H32.4511C35.0851 37.7916 37.2204 35.6563 37.2204 33.0223V21.0993C37.2204 18.4653 35.0851 16.33 32.4511 16.33ZM26.4892 31.8302C29.1232 31.8302 31.2585 29.6949 31.2585 27.061C31.2585 24.427 29.1232 22.2917 26.4892 22.2917C23.8552 22.2917 21.72 24.427 21.72 27.061C21.72 29.6949 23.8552 31.8302 26.4892 31.8302ZM34.2396 20.5029C34.2396 21.1614 33.7058 21.6952 33.0473 21.6952C32.3888 21.6952 31.855 21.1614 31.855 20.5029C31.855 19.8444 32.3888 19.3106 33.0473 19.3106C33.7058 19.3106 34.2396 19.8444 34.2396 20.5029Z" fill="white"/>
</g>
<defs>
<clipPath id="clip0_2079_34">
<rect width="23" height="22" fill="white" transform="translate(15 16)"/>
</clipPath>
</defs>
</svg>
