<svg width="161" height="54" viewBox="0 0 161 54" fill="none" xmlns="http://www.w3.org/2000/svg">
<g clip-path="url(#clip0_1_254)">
<path d="M98.1905 25.6702H91.6597V35.8631C91.6597 36.2966 91.4445 36.511 91.0094 36.511H87.7623C87.5242 36.511 87.3593 36.4654 87.2769 36.365C87.1899 36.2692 87.1441 36.1004 87.1441 35.8631V25.6702H81.4239V35.8631C81.4239 36.2966 81.2041 36.511 80.7736 36.511H77.5265C77.0914 36.511 76.8762 36.2966 76.8762 35.8631V25.6702H69.6309C69.347 25.6702 69.7042 25.6064 69.6309 25.4741C69.5531 25.3463 69.6309 25.1638 69.6309 24.9265V22.6954C69.6309 22.4582 69.5531 22.2802 69.6309 22.1616C69.7042 22.043 69.347 21.9837 69.6309 21.9837H98.1951C98.6485 21.9837 98.8729 22.2209 98.8729 22.6954V24.9265C98.8729 25.4239 98.6485 25.6702 98.1951 25.6702M84.2542 20.0719C82.7154 20.0719 81.2957 19.9031 79.995 19.5564C78.6944 19.2096 77.5677 18.7305 76.6151 18.1146C75.658 17.4986 74.9114 16.7595 74.371 15.8971C73.826 15.0394 73.5604 14.0767 73.5604 13.0181C73.5604 11.9596 73.8306 10.9969 74.371 10.1209C74.9114 9.24487 75.658 8.50117 76.6151 7.88521C77.5677 7.26926 78.6944 6.79019 79.995 6.44343C81.2957 6.10124 82.7108 5.92786 84.2542 5.92786C85.7976 5.92786 87.1807 6.10124 88.4768 6.44343C89.7729 6.79019 90.9041 7.26926 91.8567 7.88521C92.8093 8.50117 93.5558 9.24487 94.0962 10.1209C94.6412 10.9923 94.9114 11.9596 94.9114 13.0181C94.9114 14.0767 94.6412 15.0394 94.0962 15.8971C93.5558 16.7595 92.8139 17.4986 91.8704 18.1146C90.927 18.7305 89.8003 19.2096 88.4905 19.5564C87.1853 19.9031 85.7701 20.0719 84.2542 20.0719ZM84.2542 9.62357C83.3657 9.62357 82.546 9.71482 81.7995 9.89732C81.0484 10.0798 80.4118 10.3308 79.8805 10.641C79.3538 10.9513 78.9371 11.3209 78.6302 11.7406C78.328 12.1604 78.1768 12.5984 78.1768 13.0501C78.1768 13.5018 78.328 13.9033 78.6302 14.3094C78.9371 14.72 79.3538 15.0759 79.8805 15.377C80.4118 15.6781 81.0484 15.9245 81.7995 16.107C82.546 16.2895 83.3657 16.3808 84.2542 16.3808C85.1427 16.3808 85.9579 16.2895 86.7044 16.107C87.4555 15.9245 88.0921 15.6827 88.6233 15.377C89.1546 15.0759 89.5668 14.72 89.8599 14.3094C90.153 13.9033 90.2995 13.4835 90.2995 13.0501C90.2995 12.6166 90.153 12.1604 89.8599 11.7406C89.5668 11.3209 89.1546 10.9513 88.6233 10.641C88.0967 10.3308 87.4601 10.0798 86.7227 9.89732C85.9854 9.71482 85.1656 9.62357 84.2542 9.62357Z" fill="white"/>
<path d="M104.566 23.5704C104.153 23.8031 103.879 23.9309 103.737 23.94C103.595 23.9537 103.439 23.8396 103.27 23.6023L101.676 21.5948C101.415 21.248 101.323 21.0153 101.396 20.8967C101.474 20.7781 101.639 20.623 101.9 20.4268C103.073 19.6511 104.076 18.7569 104.918 17.7394C105.766 16.7265 106.466 15.6406 107.016 14.4863C107.57 13.3319 107.973 12.1228 108.234 10.859C108.491 9.59971 108.619 8.33131 108.619 7.05834C108.619 6.69333 108.669 6.47433 108.765 6.39676C108.862 6.32376 109.063 6.29639 109.37 6.31464L112.457 6.44239C112.695 6.4652 112.855 6.51539 112.942 6.58839C113.025 6.66596 113.07 6.82109 113.07 7.05834C113.07 8.9792 112.855 10.8271 112.425 12.5928C112.75 13.3045 113.167 13.9935 113.675 14.6642C114.179 15.3303 114.728 15.9463 115.314 16.5075C115.901 17.0687 116.501 17.5751 117.119 18.0268C117.737 18.4785 118.305 18.8481 118.827 19.1264C119.125 19.3226 119.276 19.496 119.267 19.6466C119.258 19.7971 119.161 20.0024 118.987 20.2625L117.751 22.2655C117.581 22.5256 117.426 22.667 117.293 22.6898C117.169 22.7081 116.949 22.6442 116.647 22.4936C116.189 22.2564 115.699 21.9644 115.168 21.6039C114.632 21.248 114.101 20.8465 113.56 20.3903C113.015 19.9386 112.502 19.4367 112.003 18.8846C111.504 18.3371 111.051 17.7576 110.638 17.1554C109.919 18.4512 109.058 19.6374 108.051 20.7142C107.048 21.791 105.875 22.74 104.561 23.5658M116.977 36.9936C115.566 36.9936 114.27 36.8293 113.075 36.5054C111.884 36.1814 110.849 35.7343 109.974 35.164C109.095 34.5937 108.408 33.9184 107.913 33.1427C107.41 32.3671 107.162 31.5139 107.162 30.5831C107.162 29.6524 107.41 28.8767 107.913 28.1102C108.408 27.3437 109.1 26.6775 109.974 26.1026C110.849 25.5278 111.884 25.0852 113.075 24.7612C114.27 24.4373 115.566 24.2776 116.977 24.2776C118.387 24.2776 119.592 24.4327 120.792 24.7476C121.996 25.0624 123.05 25.5049 123.961 26.0753C124.872 26.6456 125.596 27.3163 126.141 28.0783C126.681 28.8448 126.952 29.6797 126.952 30.5877C126.952 31.4956 126.681 32.3671 126.141 33.1473C125.596 33.923 124.872 34.5982 123.961 35.1685C123.05 35.7389 121.996 36.186 120.792 36.5099C119.592 36.8339 118.319 36.9981 116.977 36.9981M116.977 27.8091C115.351 27.8091 114.082 28.0965 113.162 28.6805C112.241 29.2645 111.779 29.9352 111.779 30.6881C111.779 31.4409 112.241 32.0614 113.162 32.6135C114.082 33.1656 115.356 33.4393 116.977 33.4393C117.733 33.4393 118.438 33.3663 119.084 33.2112C119.739 33.0606 120.302 32.8599 120.774 32.6135C121.25 32.3671 121.621 32.0751 121.896 31.742C122.166 31.409 122.299 31.0576 122.299 30.6926C122.299 30.3276 122.166 29.9672 121.896 29.625C121.621 29.2828 121.25 28.9725 120.774 28.7033C120.297 28.4341 119.734 28.2151 119.084 28.0554C118.433 27.8912 117.733 27.8136 116.977 27.8136M117.137 15.1615C116.945 15.1615 116.794 15.1205 116.679 15.0338C116.574 14.9471 116.519 14.7874 116.519 14.5501V12.1548C116.519 11.8536 116.578 11.6757 116.698 11.6209C116.817 11.5662 116.963 11.5388 117.137 11.5388H122.239V6.3192C122.239 6.04088 122.303 5.8675 122.436 5.79906C122.564 5.73519 122.725 5.70325 122.921 5.70325H126.141C126.42 5.70325 126.59 5.76256 126.645 5.88119C126.695 5.99982 126.727 6.14126 126.727 6.3192V22.8541C126.727 23.2647 126.517 23.47 126.104 23.47H122.857C122.445 23.47 122.239 23.2738 122.239 22.886V15.1524H117.137V15.1615Z" fill="white"/>
<path d="M159.747 23.5009H147.693V35.861C147.693 36.2945 147.482 36.5089 147.047 36.5089H143.828C143.374 36.5089 143.145 36.2945 143.145 35.861V23.5009H131.838C131.554 23.5009 131.375 23.4416 131.302 23.323C131.224 23.2044 131.188 23.0264 131.188 22.7892V20.558C131.188 20.3208 131.229 20.1428 131.302 20.0242C131.375 19.9056 131.558 19.8463 131.838 19.8463H150.844C151.146 18.5961 151.38 17.2182 151.545 15.7217C151.705 14.2206 151.787 12.6876 151.787 11.1089C151.787 10.9127 151.755 10.7393 151.691 10.5888C151.623 10.4382 151.43 10.3606 151.1 10.3606H135.735C135.557 10.3606 135.396 10.3333 135.245 10.2831C135.094 10.2283 135.016 10.0641 135.016 9.78121V7.22615C135.016 6.96608 135.089 6.81095 135.227 6.7562C135.369 6.70145 135.538 6.67407 135.735 6.67407H153.963C154.787 6.67407 155.369 6.85201 155.717 7.2079C156.06 7.56378 156.239 8.19798 156.239 9.10138C156.239 10.9127 156.147 12.7469 155.978 14.6038C155.799 16.4608 155.534 18.2037 155.163 19.8463H159.742C160.2 19.8463 160.425 20.0835 160.425 20.558V22.7892C160.425 23.2637 160.2 23.5009 159.742 23.5009" fill="white"/>
<path d="M75.8461 40.5352L73.8355 44.4773V47.2331H72.8142V44.4773L70.8037 40.5352H71.9166L73.3272 43.4826L74.7377 40.5352H75.8506H75.8461Z" fill="white"/>
<path d="M81.6393 44.9802C81.6393 45.6646 81.4103 46.2212 80.9523 46.6501C80.4943 47.079 79.9173 47.2935 79.2166 47.2935C78.5159 47.2935 77.948 47.079 77.4946 46.6501C77.0366 46.2212 76.8076 45.6646 76.8076 44.9802V40.5408H77.8289V44.9346C77.8289 45.3817 77.9526 45.733 78.1999 45.9931C78.4472 46.2532 78.7861 46.3855 79.2166 46.3855C79.6471 46.3855 79.9768 46.2532 80.2333 45.9931C80.4898 45.733 80.6134 45.3772 80.6134 44.9346V40.5408H81.6347V44.9802H81.6393Z" fill="white"/>
<path d="M87.6392 45.3265C87.6392 45.9333 87.4148 46.417 86.9705 46.7683C86.5263 47.1196 85.9401 47.293 85.2165 47.293C84.6989 47.293 84.2501 47.2245 83.8746 47.0922C83.4945 46.9553 83.151 46.7318 82.835 46.4078L83.5174 45.7417C83.7509 45.9744 84.0074 46.1386 84.2868 46.2344C84.5661 46.3348 84.8821 46.3805 85.2348 46.3805C85.6744 46.3805 86.0179 46.2892 86.2606 46.1113C86.5034 45.9333 86.6224 45.6778 86.6224 45.3539C86.6224 45.0482 86.5354 44.8155 86.3568 44.6558C86.2744 44.5828 86.1782 44.5235 86.0729 44.4778C85.9675 44.4322 85.8164 44.4003 85.6195 44.3729L84.8272 44.2588C84.2776 44.1813 83.8517 44.0033 83.554 43.7205C83.2242 43.4148 83.064 42.9859 83.064 42.4429C83.064 41.8543 83.2655 41.3798 83.6685 41.0148C84.0715 40.6544 84.6211 40.4764 85.3126 40.4764C86.1553 40.4764 86.8514 40.7319 87.401 41.2384L86.7507 41.8772C86.5538 41.6901 86.3385 41.5578 86.1004 41.4757C85.8622 41.3981 85.592 41.357 85.2852 41.357C84.9004 41.357 84.5982 41.4574 84.3829 41.6536C84.1677 41.8498 84.0578 42.1007 84.0578 42.4019C84.0578 42.6665 84.1448 42.8718 84.3188 43.0269C84.4928 43.1821 84.7402 43.2824 85.0699 43.3326L85.8347 43.4467C86.137 43.4878 86.3843 43.5516 86.5766 43.6292C86.769 43.7068 86.9385 43.8117 87.0896 43.944C87.456 44.2634 87.6392 44.7197 87.6392 45.3174V45.3265Z" fill="white"/>
<path d="M93.4518 47.2388H89.1514V40.5409H93.4518V41.4534H90.1727V43.4108H92.9709V44.3142H90.1727V46.3263H93.4518V47.2388Z" fill="white"/>
<path d="M99.583 43.8906C99.583 44.7027 99.5601 45.2274 99.5189 45.4738C99.4411 45.9072 99.2487 46.2768 98.9419 46.5825C98.461 47.0616 97.8702 47.2988 97.1649 47.2988C96.4596 47.2988 95.878 47.0616 95.3971 46.5825C95.0948 46.2814 94.9025 45.9164 94.82 45.4829C94.7697 45.2137 94.7422 44.6845 94.7422 43.8906C94.7422 43.0967 94.7651 42.5811 94.82 42.3119C94.9025 41.8739 95.0948 41.4998 95.3971 41.1986C95.878 40.7196 96.4642 40.4823 97.1649 40.4823C97.5221 40.4823 97.8519 40.5416 98.1404 40.6602C98.4335 40.7789 98.6991 40.9614 98.9419 41.1986C99.235 41.4952 99.4273 41.8602 99.5098 42.2982C99.5601 42.5765 99.5876 43.1058 99.5876 43.8906H99.583ZM98.5617 43.8906C98.5617 43.1879 98.5388 42.7134 98.4885 42.467C98.4427 42.2207 98.3327 42.0016 98.1633 41.8146C98.0442 41.6823 97.8977 41.5819 97.7236 41.5089C97.5496 41.4359 97.3618 41.3994 97.1603 41.3994C96.9588 41.3994 96.7802 41.4359 96.597 41.5134C96.4184 41.591 96.2718 41.6914 96.1573 41.8146C95.9925 41.9925 95.8871 42.2115 95.8368 42.4762C95.7864 42.7453 95.7589 43.2153 95.7589 43.8906C95.7589 44.5658 95.7818 45.0677 95.8276 45.3187C95.8734 45.565 95.9833 45.784 96.1528 45.9711C96.2718 46.1034 96.4184 46.2038 96.5924 46.2768C96.7665 46.3498 96.9542 46.3863 97.1557 46.3863C97.3572 46.3863 97.5404 46.3452 97.7191 46.2722C97.8977 46.1992 98.0442 46.0943 98.1587 45.9711C98.3236 45.7977 98.4289 45.5742 98.4793 45.3095C98.5297 45.0449 98.5572 44.5704 98.5572 43.8951L98.5617 43.8906Z" fill="white"/>
<path d="M106.303 47.2388H105.368L102.259 42.5256V47.2388H101.237V40.5409H102.172L105.281 45.2449V40.5409H106.303V47.2388Z" fill="white"/>
<path d="M112.832 44.648C112.832 45.086 112.786 45.451 112.695 45.743C112.603 46.035 112.448 46.2996 112.228 46.5369C111.976 46.8015 111.696 46.9931 111.39 47.1163C111.083 47.2395 110.744 47.2988 110.373 47.2988C109.672 47.2988 109.086 47.0616 108.605 46.5825C108.303 46.2814 108.11 45.9164 108.028 45.4829C107.978 45.2137 107.95 44.6845 107.95 43.8906C107.95 43.0967 107.973 42.5811 108.028 42.3119C108.11 41.8739 108.303 41.4998 108.605 41.1986C109.086 40.7196 109.672 40.4823 110.377 40.4823C111.083 40.4823 111.632 40.6831 112.072 41.0846C112.475 41.4587 112.727 41.9515 112.828 42.5674H111.797C111.71 42.1933 111.545 41.9058 111.307 41.7005C111.069 41.4952 110.758 41.3948 110.377 41.3948C110.181 41.3948 109.997 41.4313 109.823 41.5089C109.649 41.5864 109.503 41.6868 109.384 41.81C109.219 41.988 109.113 42.2115 109.059 42.4944C109.004 42.7727 108.976 43.2381 108.976 43.8906C108.976 44.543 109.004 45.0495 109.054 45.3095C109.104 45.5742 109.214 45.7977 109.384 45.9802C109.636 46.2494 109.965 46.3863 110.377 46.3863C110.831 46.3863 111.197 46.2266 111.477 45.9164C111.701 45.6517 111.816 45.3004 111.816 44.8624V44.4837H110.377V43.6259H112.832V44.648Z" fill="white"/>
<path d="M124.076 43.8397V44.2092C124.076 44.7796 124.044 45.2084 123.98 45.5004C123.884 45.9476 123.692 46.3172 123.394 46.6092C123.188 46.8145 122.931 46.9742 122.634 47.0791C122.336 47.184 122.006 47.2388 121.658 47.2388H119.295V40.5409H121.658C122.395 40.5409 122.977 40.7508 123.398 41.1705C123.719 41.4899 123.925 41.9051 124.012 42.4116C124.053 42.6671 124.076 43.1461 124.076 43.8397ZM123.055 43.8397C123.055 43.283 123.041 42.8906 123.009 42.6716C122.959 42.334 122.853 42.0739 122.698 41.9006C122.423 41.5994 122.038 41.4489 121.553 41.4489H120.316V46.3263H121.553C122.038 46.3263 122.418 46.1757 122.698 45.8746C122.853 45.6966 122.959 45.4274 123.009 45.067C123.041 44.8297 123.055 44.4191 123.055 43.8442V43.8397Z" fill="white"/>
<path d="M126.751 47.2388H125.729V40.5409H126.751V47.2388Z" fill="white"/>
<path d="M132.855 45.3265C132.855 45.9333 132.631 46.417 132.186 46.7683C131.742 47.1196 131.16 47.293 130.432 47.293C129.915 47.293 129.471 47.2245 129.09 47.0922C128.71 46.9553 128.367 46.7318 128.051 46.4078L128.733 45.7417C128.967 45.9744 129.223 46.1386 129.503 46.2344C129.782 46.3348 130.098 46.3805 130.451 46.3805C130.89 46.3805 131.234 46.2892 131.476 46.1113C131.719 45.9333 131.838 45.6778 131.838 45.3539C131.838 45.0482 131.751 44.8155 131.573 44.6558C131.49 44.5828 131.394 44.5235 131.289 44.4778C131.183 44.4322 131.032 44.4003 130.835 44.3729L130.043 44.2588C129.493 44.1813 129.067 44.0033 128.765 43.7205C128.435 43.4148 128.275 42.9859 128.275 42.4429C128.275 41.8543 128.477 41.3798 128.88 41.0148C129.283 40.6544 129.832 40.4764 130.524 40.4764C131.367 40.4764 132.063 40.7319 132.612 41.2384L131.962 41.8772C131.765 41.6901 131.55 41.5578 131.312 41.4757C131.073 41.3981 130.803 41.357 130.496 41.357C130.112 41.357 129.809 41.4574 129.594 41.6536C129.379 41.8498 129.269 42.1007 129.269 42.4019C129.269 42.6665 129.356 42.8718 129.53 43.0269C129.704 43.1821 129.951 43.2824 130.281 43.3326L131.046 43.4467C131.348 43.4878 131.596 43.5516 131.788 43.6292C131.98 43.7068 132.15 43.8117 132.301 43.944C132.667 44.2634 132.85 44.7197 132.85 45.3174L132.855 45.3265Z" fill="white"/>
<path d="M138.497 41.4477H136.647V47.2377H135.626V41.4477H133.775V40.5352H138.502V41.4477H138.497Z" fill="white"/>
<path d="M144.707 47.2388H143.516L142.106 44.4145H140.828V47.2388H139.807V40.5409H142.417C143.049 40.5409 143.553 40.7188 143.933 41.0793C144.313 41.4397 144.506 41.9142 144.506 42.4937C144.506 42.9499 144.382 43.3378 144.135 43.648C143.883 43.9583 143.562 44.1682 143.164 44.2731L144.712 47.2388H144.707ZM143.48 42.5119C143.48 42.1834 143.379 41.9279 143.168 41.7363C142.962 41.5492 142.683 41.4534 142.335 41.4534H140.823V43.5613H142.335C142.674 43.5613 142.948 43.4701 143.164 43.283C143.374 43.096 143.48 42.8404 143.48 42.5119Z" fill="white"/>
<path d="M147.154 47.2387H146.133V40.5408H147.154V47.2387Z" fill="white"/>
<path d="M153.624 45.2365C153.51 45.8935 153.24 46.4046 152.814 46.7604C152.383 47.1163 151.856 47.2988 151.224 47.2988C150.524 47.2988 149.938 47.0616 149.457 46.5825C149.154 46.2814 148.962 45.9164 148.88 45.4829C148.829 45.2137 148.802 44.6845 148.802 43.8906C148.802 43.0967 148.825 42.5811 148.88 42.3119C148.962 41.8739 149.154 41.4998 149.457 41.1986C149.938 40.7196 150.524 40.4823 151.224 40.4823C151.856 40.4823 152.383 40.6602 152.809 41.0207C153.235 41.3766 153.505 41.8876 153.624 42.5446H152.585C152.502 42.1887 152.351 41.9104 152.131 41.7188C151.893 41.5043 151.591 41.3994 151.224 41.3994C150.817 41.3994 150.483 41.5317 150.231 41.8055C150.066 41.9788 149.956 42.2115 149.905 42.4898C149.851 42.7727 149.823 43.2381 149.823 43.8906C149.823 44.543 149.851 45.0495 149.901 45.3095C149.951 45.5742 150.061 45.7977 150.231 45.9802C150.483 46.2494 150.812 46.3863 151.224 46.3863C151.591 46.3863 151.889 46.2814 152.122 46.0761C152.356 45.8707 152.511 45.5879 152.594 45.2411H153.624V45.2365Z" fill="white"/>
<path d="M159.257 41.4476H157.407V47.2375H156.385V41.4476H154.535V40.535H159.262V41.4476H159.257Z" fill="white"/>
<path d="M59.9586 26.4953C59.9586 22.5486 54.5453 19.0765 46.3566 17.0689C48.7061 8.99312 48.3992 2.58266 44.969 0.611612C41.5387 -1.36399 35.8185 1.56976 29.9793 7.63346C24.1401 1.56976 18.4199 -1.36399 14.9851 0.611612C11.5548 2.58266 11.248 8.99312 13.5928 17.0689C5.40415 19.0765 0 22.5486 0 26.4953C0 30.4419 5.40415 33.9232 13.5928 35.9307C11.248 44.002 11.5548 50.4124 14.9851 52.3835C18.4199 54.3637 24.1355 51.4253 29.9793 45.3571C35.8185 51.4208 41.5387 54.3637 44.969 52.3835C48.3992 50.4124 48.7061 44.002 46.3566 35.9307C54.5453 33.9186 59.9586 30.4465 59.9586 26.4953Z" fill="white"/>
<path d="M59.9586 26.4952C59.9586 22.5485 54.5453 19.0764 46.3566 17.0688C45.4956 20.0345 44.2772 23.2187 42.7246 26.5037C44.2772 29.7797 45.4954 32.9644 46.3564 35.9346C54.5451 33.9225 59.9584 30.4504 59.9584 26.4992L59.9586 26.4952Z" fill="#056FB8"/>
<path d="M13.5928 17.0702C5.40411 19.0778 0 22.5507 0 26.4973C0 30.444 5.40415 33.9252 13.5928 35.9328C14.4492 32.9671 15.6766 29.7824 17.2338 26.5019C15.6766 23.2214 14.4538 20.0321 13.5928 17.0664V17.0702Z" fill="#056FB8"/>
<path d="M13.5928 35.9297C11.2479 44.0009 11.5548 50.4114 14.985 52.3824C18.4199 54.3626 24.1354 51.4243 29.9793 45.356C27.8313 43.134 25.6697 40.4877 23.6042 37.5038C19.9816 37.2072 16.6017 36.6688 13.5928 35.9297Z" fill="#056FB8"/>
<path d="M46.3566 17.0689C48.7061 8.99312 48.3992 2.58266 44.969 0.611612C41.5387 -1.36399 35.8185 1.56976 29.9793 7.63346C32.1181 9.86457 34.2799 12.5063 36.35 15.4903C39.9772 15.7823 43.3569 16.3252 46.3566 17.0689Z" fill="#056FB8"/>
<path d="M29.9793 7.63346C24.1401 1.56976 18.4199 -1.36399 14.9851 0.611612C11.5548 2.58266 11.248 8.99312 13.5928 17.0689C16.6017 16.3252 19.9816 15.7868 23.6042 15.4903C25.6697 12.5018 27.8268 9.86001 29.9793 7.63346Z" fill="#056FB8"/>
<path d="M29.9795 45.3619C35.8187 51.4256 41.5389 54.3685 44.9691 52.3883C48.3994 50.4173 48.7058 44.006 46.3564 35.9347C43.3566 36.6693 39.9726 37.2131 36.35 37.5096C34.2799 40.4936 32.1274 43.1399 29.9795 45.3619Z" fill="#056FB8"/>
<path d="M36.1714 15.7939C34.1746 15.6388 32.1045 15.543 29.9795 15.543C27.8545 15.543 25.7753 15.6342 23.7831 15.7939C22.6381 17.441 21.5298 19.1839 20.4627 21.0227C19.4002 22.8614 18.4385 24.691 17.582 26.5023C18.4385 28.3046 19.4002 30.1387 20.4627 31.9729C21.5298 33.8116 22.6335 35.5546 23.7831 37.1971C25.7753 37.3613 27.8499 37.4526 29.9795 37.4526C32.1091 37.4526 34.1792 37.3613 36.1714 37.1971C37.3118 35.5546 38.4247 33.8116 39.4917 31.9729C40.5543 30.1387 41.5114 28.3046 42.3724 26.5023C41.516 24.691 40.5543 22.8614 39.4917 21.0227C38.4247 19.1885 37.3118 17.441 36.1714 15.7939Z" fill="#E52E20"/>
<path d="M27.0173 18.8857C26.9852 18.9222 24.3061 22.7502 26.0006 26.1129C28.4874 31.0268 22.781 34.2617 22.726 34.2891C22.6848 34.3119 22.6344 34.321 22.5841 34.321C22.5337 34.321 22.4879 34.3119 22.4512 34.2891C22.3734 34.248 22.3459 34.1659 22.4009 34.102C22.4283 34.0609 25.625 30.0504 23.7153 26.8885C21.1368 22.6179 26.6189 18.7488 26.6738 18.7169C26.7517 18.6667 26.8662 18.6576 26.9532 18.6941C27.0402 18.7351 27.0723 18.8173 27.0219 18.8811L27.0173 18.8857Z" fill="white"/>
<path d="M32.2919 18.8854C32.2644 18.9219 29.5806 22.75 31.2798 26.1126C33.7574 31.0265 28.0602 34.2614 28.0006 34.2888C27.9594 34.3116 27.9044 34.3207 27.8586 34.3207C27.8083 34.3207 27.7625 34.3116 27.7258 34.2888C27.648 34.2477 27.6205 34.1656 27.6755 34.1017C27.7075 34.0607 30.895 30.0501 28.9899 26.8882C26.4114 22.6176 31.8889 18.7486 31.9484 18.7166C32.0217 18.6664 32.1408 18.6573 32.2232 18.6938C32.3102 18.7349 32.3377 18.817 32.2919 18.8809V18.8854Z" fill="white"/>
<path d="M37.5683 18.8857C37.5454 18.9222 34.8525 22.7502 36.5562 26.1129C39.0339 31.0268 33.3229 34.2617 33.2771 34.2891C33.2359 34.3119 33.1855 34.321 33.1305 34.321C33.0893 34.321 33.0389 34.3119 32.9977 34.2891C32.9198 34.248 32.9015 34.1659 32.9565 34.102C32.9885 34.0609 36.1807 30.0504 34.2663 26.8885C31.6833 22.6179 37.1653 18.7488 37.2203 18.7169C37.2981 18.6667 37.4172 18.6576 37.5042 18.6941C37.5912 18.7351 37.6141 18.8173 37.5683 18.8811V18.8857Z" fill="white"/>
</g>
<defs>
<clipPath id="clip0_1_254">
<rect width="161" height="54" fill="white"/>
</clipPath>
</defs>
</svg>
