<svg width="71" height="26" viewBox="0 0 71 26" fill="none" xmlns="http://www.w3.org/2000/svg">
<g clip-path="url(#clip0_1_7)">
<path d="M43.7932 12.2749H40.9532V16.7285C40.9532 16.9221 40.8564 17.0082 40.6735 17.0082H39.2643C39.1567 17.0082 39.0922 16.9867 39.0492 16.9436C39.0061 16.9006 38.9954 16.8253 38.9954 16.7285V12.2749H36.5104V16.7285C36.5104 16.9221 36.4136 17.0082 36.2307 17.0082H34.8215C34.6279 17.0082 34.5418 16.9114 34.5418 16.7285V12.2749H31.3899C31.2715 12.2749 31.4221 12.2426 31.3899 12.1889C31.3576 12.1351 31.3899 12.049 31.3899 11.9522V10.9733C31.3899 10.8657 31.3576 10.7904 31.3899 10.7366C31.4221 10.6828 31.2715 10.6613 31.3899 10.6613H43.8147C44.0083 10.6613 44.1052 10.7689 44.1052 10.9733V11.9522C44.1052 12.1673 44.0083 12.2749 43.8147 12.2749M37.7475 9.83298C37.0806 9.83298 36.4566 9.75768 35.8972 9.60707C35.3271 9.45647 34.843 9.25208 34.4235 8.98314C34.0039 8.7142 33.6812 8.39148 33.4445 8.01497C33.2079 7.63846 33.0895 7.21892 33.0895 6.75635C33.0895 6.29378 33.2079 5.87424 33.4445 5.48697C33.6812 5.11046 34.0039 4.77698 34.4235 4.50804C34.8322 4.23911 35.3271 4.03471 35.8972 3.88411C36.4566 3.73351 37.0806 3.6582 37.7475 3.6582C38.4145 3.6582 39.0169 3.73351 39.587 3.88411C40.1464 4.03471 40.6413 4.23911 41.0608 4.50804C41.4803 4.77698 41.8031 5.0997 42.0397 5.48697C42.2764 5.86348 42.3947 6.29378 42.3947 6.75635C42.3947 7.21892 42.2764 7.63846 42.0397 8.01497C41.8031 8.39148 41.4804 8.7142 41.0716 8.98314C40.6628 9.25208 40.1679 9.45647 39.5978 9.60707C39.0277 9.75768 38.4145 9.83298 37.7583 9.83298M37.7583 5.27182C37.371 5.27182 37.016 5.31485 36.6933 5.39015C36.3706 5.46545 36.0909 5.58379 35.8542 5.71288C35.6283 5.85272 35.4454 6.01408 35.3056 6.19696C35.1765 6.37984 35.1119 6.57347 35.1119 6.7671C35.1119 6.96074 35.1765 7.14362 35.3056 7.31573C35.4347 7.49861 35.6175 7.64922 35.8542 7.77831C36.0801 7.90739 36.3598 8.01497 36.6933 8.10103C37.016 8.17633 37.371 8.21936 37.7583 8.21936C38.1455 8.21936 38.5005 8.17633 38.8233 8.10103C39.146 8.02573 39.4257 7.91815 39.6623 7.77831C39.8882 7.64922 40.0711 7.48785 40.2002 7.31573C40.3293 7.13286 40.3938 6.94998 40.3938 6.7671C40.3938 6.58423 40.3293 6.37984 40.2002 6.19696C40.0711 6.01408 39.899 5.85272 39.6623 5.71288C39.4364 5.57303 39.1567 5.46545 38.834 5.39015C38.5113 5.31485 38.1563 5.27182 37.7583 5.27182Z" fill="#595857"/>
<path d="M46.5684 11.3596C46.3855 11.4672 46.2672 11.521 46.2134 11.521C46.1489 11.521 46.0843 11.478 46.009 11.3704L45.3205 10.499C45.2022 10.3484 45.1699 10.2516 45.2022 10.1978C45.2345 10.144 45.3098 10.0795 45.4174 9.99344C45.923 9.65996 46.364 9.26193 46.7298 8.82088C47.0955 8.37982 47.3967 7.90649 47.6442 7.40089C47.8808 6.89529 48.0637 6.36818 48.1713 5.81955C48.2788 5.27092 48.3434 4.71153 48.3434 4.1629C48.3434 4.00154 48.3649 3.90472 48.4079 3.87245C48.451 3.84018 48.537 3.82942 48.6661 3.84018L50.0108 3.89397C50.1184 3.89397 50.1829 3.92624 50.2259 3.95851C50.2582 3.99078 50.2797 4.05533 50.2797 4.1629C50.2797 5.00198 50.1829 5.80879 50 6.58333C50.1399 6.89529 50.3228 7.1965 50.5487 7.48695C50.7638 7.7774 51.0112 8.04634 51.2587 8.29376C51.5168 8.54118 51.775 8.75633 52.044 8.96072C52.3129 9.15436 52.5603 9.31572 52.7862 9.44481C52.9153 9.53087 52.9798 9.60617 52.9798 9.67072C52.9798 9.73526 52.9368 9.82132 52.8615 9.93965L52.3236 10.811C52.2483 10.9293 52.1838 10.9831 52.13 10.9939C52.0762 10.9939 51.9794 10.9724 51.8503 10.9078C51.6459 10.8002 51.4415 10.6712 51.2049 10.5206C50.9682 10.3699 50.7423 10.1871 50.5056 9.99344C50.269 9.7998 50.0431 9.5739 49.8279 9.33723C49.6128 9.10057 49.4084 8.84239 49.2363 8.58421C48.9243 9.15436 48.5478 9.67072 48.1067 10.144C47.6657 10.6174 47.1601 11.0262 46.5899 11.3919M51.9902 17.2547C51.377 17.2547 50.8068 17.1794 50.2905 17.0396C49.7741 16.8997 49.3223 16.7061 48.9458 16.4587C48.5693 16.2112 48.2681 15.91 48.0529 15.5766C47.8378 15.2323 47.7302 14.8666 47.7302 14.4578C47.7302 14.049 47.8378 13.7155 48.0529 13.382C48.2681 13.0486 48.5693 12.7581 48.9458 12.5107C49.3223 12.2633 49.7741 12.0696 50.2905 11.919C50.8068 11.7792 51.377 11.7039 51.9902 11.7039C52.6033 11.7039 53.1305 11.7684 53.6468 11.9083C54.1739 12.0481 54.6257 12.2417 55.0238 12.4892C55.4218 12.7366 55.7338 13.027 55.9704 13.3605C56.2071 13.694 56.3254 14.0598 56.3254 14.4578C56.3254 14.8558 56.2071 15.2323 55.9704 15.5766C55.7338 15.91 55.4218 16.2112 55.0238 16.4587C54.6257 16.7061 54.1739 16.8997 53.6468 17.0396C53.1197 17.1794 52.5711 17.2547 51.9902 17.2547ZM51.9902 13.2422C51.2802 13.2422 50.7315 13.3713 50.3335 13.6187C49.9355 13.8769 49.7311 14.1673 49.7311 14.4901C49.7311 14.8128 49.9355 15.0925 50.3335 15.3291C50.7315 15.5658 51.2909 15.6949 51.9902 15.6949C52.3236 15.6949 52.6249 15.6626 52.9045 15.5981C53.1842 15.5335 53.4317 15.4475 53.6361 15.3399C53.8404 15.2323 54.0018 15.1032 54.1201 14.9634C54.2385 14.8128 54.2923 14.6622 54.2923 14.5008C54.2923 14.3394 54.2385 14.1888 54.1201 14.0382C54.0018 13.8876 53.8404 13.7585 53.6361 13.6402C53.4317 13.5219 53.1842 13.4251 52.9045 13.3605C52.6249 13.2852 52.3129 13.2529 51.9902 13.2529M52.0547 7.72362L51.8611 7.66983C51.8611 7.66983 51.7965 7.56226 51.7965 7.45468V6.41121C51.7965 6.28212 51.818 6.19606 51.8718 6.17455L52.0655 6.14227H54.2815V3.87245C54.2815 3.75412 54.3138 3.67882 54.3676 3.64655L54.5827 3.60352H55.9812C56.0995 3.60352 56.1748 3.62503 56.1963 3.67882L56.2286 3.87245V11.0907C56.2286 11.2736 56.1425 11.3596 55.9597 11.3596H54.5504C54.3676 11.3596 54.2815 11.2736 54.2815 11.1015V7.72362H52.0655H52.0547Z" fill="#595857"/>
<path d="M70.5684 11.3268H65.3295V16.7271C65.3295 16.9207 65.2327 17.0067 65.0498 17.0067H63.6514C63.4577 17.0067 63.3502 16.9099 63.3502 16.7271V11.3268H58.434C58.3157 11.3268 58.2296 11.3053 58.1973 11.2515C58.1651 11.1977 58.1436 11.1224 58.1436 11.0148V10.0359C58.1436 9.92834 58.1651 9.85304 58.1973 9.79926C58.2296 9.74547 58.3049 9.72395 58.434 9.72395H66.7065C66.8356 9.17532 66.9431 8.57291 67.0077 7.92746C67.083 7.27126 67.1153 6.60429 67.1153 5.91582L67.0722 5.68991C67.04 5.62537 66.9539 5.59309 66.8141 5.59309H60.1337L59.9185 5.56082C59.854 5.53931 59.8217 5.464 59.8217 5.34567V4.2269C59.8217 4.10857 59.854 4.04402 59.9185 4.02251L60.1337 3.99023H68.0619C68.4169 3.99023 68.6751 4.06554 68.8257 4.2269C68.9763 4.38826 69.0516 4.6572 69.0516 5.05522C69.0516 5.85127 69.0086 6.64732 68.9333 7.45413C68.858 8.26094 68.7396 9.02472 68.5783 9.74547H70.5684C70.762 9.74547 70.8696 9.85304 70.8696 10.0574V11.0364C70.8696 11.2408 70.7728 11.3483 70.5684 11.3483" fill="#595857"/>
<path d="M34.0685 18.7715L33.1972 20.4927V21.6975H32.7561V20.4927L31.874 18.7715H32.3581L32.9713 20.0516L33.5845 18.7715H34.0685Z" fill="#595857"/>
<path d="M36.5967 20.7078C36.5967 21.009 36.4999 21.2457 36.2955 21.4393C36.1019 21.6222 35.8437 21.719 35.5425 21.719C35.2413 21.719 34.9939 21.6222 34.7895 21.4393C34.5959 21.2565 34.4883 21.009 34.4883 20.7078V18.7715H34.9293V20.6863C34.9293 20.8799 34.9831 21.0305 35.0907 21.1489C35.1983 21.2672 35.3489 21.321 35.5318 21.321C35.7146 21.321 35.8652 21.2672 35.9728 21.1489C36.0804 21.0305 36.1342 20.8799 36.1342 20.6863V18.7715H36.5752V20.7078H36.5967Z" fill="#595857"/>
<path d="M39.2001 20.8588C39.2001 21.1277 39.1033 21.3321 38.9097 21.4827C38.716 21.6333 38.4579 21.7086 38.1459 21.7086C37.92 21.7086 37.7264 21.6764 37.565 21.6226C37.4036 21.5688 37.253 21.4612 37.1132 21.3214L37.4144 21.0309C37.5112 21.1277 37.6295 21.203 37.7479 21.2461C37.8662 21.2891 38.0061 21.3106 38.1567 21.3106C38.3503 21.3106 38.5009 21.2676 38.5977 21.1923C38.7053 21.117 38.7591 20.9986 38.7591 20.8588C38.7591 20.7297 38.716 20.6221 38.6407 20.5576L38.5224 20.4823L38.3288 20.4393L37.9845 20.3855C37.7479 20.3532 37.565 20.2779 37.4252 20.1488C37.2853 20.0197 37.21 19.8261 37.21 19.5894C37.21 19.3312 37.2961 19.1269 37.4682 18.9655C37.6403 18.8041 37.877 18.7288 38.1889 18.7288C38.5547 18.7288 38.8559 18.8364 39.0926 19.0623L38.8129 19.342C38.7268 19.2559 38.63 19.2022 38.5332 19.1699C38.4256 19.1376 38.3073 19.1161 38.1782 19.1161C38.0061 19.1161 37.877 19.1591 37.7909 19.2452C37.6941 19.3312 37.6511 19.4388 37.6511 19.5679C37.6511 19.6862 37.6941 19.7723 37.7586 19.8368C37.8339 19.9014 37.9415 19.9444 38.0814 19.9659L38.4148 20.0197C38.5439 20.0412 38.6515 20.0628 38.7376 20.095L38.9635 20.2349C39.1248 20.3747 39.2001 20.5791 39.2001 20.8373V20.8588Z" fill="#595857"/>
<path d="M41.7282 21.6975H39.8564V18.7715H41.7282V19.1695H40.3083V20.0193H41.5238V20.4174H40.3083V21.2887H41.7282V21.6975Z" fill="#595857"/>
<path d="M44.3955 20.2355C44.3955 20.5905 44.3956 20.8164 44.3633 20.924C44.331 21.1176 44.2448 21.279 44.1158 21.4081C43.9114 21.6125 43.6533 21.72 43.3413 21.72C43.0294 21.72 42.7818 21.6125 42.5774 21.4081C42.4484 21.279 42.3624 21.1176 42.3301 20.924C42.3086 20.8057 42.2979 20.5798 42.2979 20.2248C42.2979 19.8698 42.3086 19.6546 42.3301 19.5363C42.3624 19.3427 42.4484 19.1813 42.5774 19.0522C42.7818 18.8478 43.0401 18.7402 43.3413 18.7402C43.5027 18.7402 43.6424 18.7617 43.7715 18.8155C43.9006 18.8693 44.0189 18.9446 44.1158 19.0522C44.2448 19.1813 44.331 19.3427 44.3633 19.5363C44.3848 19.6546 44.3955 19.8913 44.3955 20.2355ZM43.9544 20.2355C43.9544 19.9343 43.9544 19.7192 43.9221 19.6116C43.9006 19.504 43.8576 19.4072 43.7823 19.3211L43.5886 19.192L43.3413 19.149L43.0938 19.2028L42.9002 19.3319C42.8249 19.4072 42.7818 19.504 42.7603 19.6223C42.7388 19.7407 42.7281 19.9451 42.7281 20.2355C42.7281 20.526 42.728 20.7519 42.7603 20.8595C42.7818 20.967 42.8249 21.0638 42.9002 21.1391L43.0938 21.2682L43.3413 21.3113L43.5886 21.2575L43.7823 21.1284C43.8576 21.0531 43.9006 20.9563 43.9221 20.8379C43.9436 20.7196 43.9544 20.5152 43.9544 20.2248V20.2355Z" fill="#595857"/>
<path d="M47.3215 21.6975H46.9127L45.5573 19.6321V21.6975H45.1162V18.7715H45.525L46.8804 20.8154V18.7715H47.3215V21.6975Z" fill="#595857"/>
<path d="M50.1622 20.5583C50.1622 20.7519 50.1407 20.9133 50.0976 21.0316C50.0546 21.1607 49.9901 21.2789 49.8933 21.3757C49.7857 21.4941 49.6673 21.5695 49.5275 21.6233C49.3984 21.677 49.2478 21.6986 49.0864 21.6986C48.7852 21.6986 48.5271 21.591 48.3227 21.3866C48.1936 21.2575 48.1075 21.0961 48.0752 20.9025C48.0537 20.7842 48.043 20.5583 48.043 20.2033C48.043 19.8483 48.0537 19.633 48.0752 19.5147C48.1075 19.3211 48.1936 19.1598 48.3227 19.0307C48.5271 18.8263 48.7852 18.7188 49.0972 18.7188C49.4092 18.7188 49.6458 18.8047 49.8395 18.9876C50.0116 19.1489 50.1299 19.3642 50.1729 19.6331H49.7211C49.6781 19.4718 49.6136 19.3426 49.506 19.2565C49.3984 19.1705 49.2693 19.1275 49.0972 19.1275L48.8605 19.1812L48.6669 19.3104C48.5916 19.3857 48.5486 19.4825 48.5271 19.6116C48.5055 19.7299 48.4948 19.9343 48.4948 20.2248C48.4948 20.5152 48.5055 20.7304 48.5271 20.8486C48.5486 20.9671 48.6024 21.0639 48.6669 21.1392C48.7745 21.2575 48.9251 21.3113 49.0972 21.3113C49.2908 21.3113 49.4522 21.2466 49.5705 21.1068C49.6673 20.9885 49.7211 20.838 49.7211 20.6443V20.483H49.0972V20.1065H50.1622V20.5583Z" fill="#595857"/>
<path d="M55.0567 20.214V20.3753C55.0567 20.6228 55.0459 20.8164 55.0137 20.9347C54.9706 21.1284 54.8846 21.2897 54.7555 21.4188C54.6694 21.5049 54.5511 21.5802 54.422 21.6232C54.2929 21.6662 54.1531 21.6877 53.9917 21.6877H52.959V18.7617H53.9917C54.3144 18.7617 54.5618 18.8585 54.7447 19.0414C54.8846 19.1813 54.9706 19.3641 55.0137 19.5793C55.0352 19.6869 55.0459 19.902 55.0459 20.2032L55.0567 20.214ZM54.6156 20.214C54.6156 19.9666 54.6156 19.8052 54.5941 19.7084C54.5726 19.5578 54.5296 19.4502 54.4543 19.3749C54.3359 19.2458 54.1638 19.1813 53.9594 19.1813H53.4216V21.3112H53.9594C54.1746 21.3112 54.3359 21.2467 54.4543 21.1176C54.5188 21.0423 54.5726 20.924 54.5941 20.7626C54.6049 20.655 54.6156 20.4829 54.6156 20.2247V20.214Z" fill="#595857"/>
<path d="M56.2077 18.7715H55.7666V21.6975H56.2077V18.7715Z" fill="#595857"/>
<path d="M58.876 20.8588C58.876 21.1277 58.7792 21.3321 58.5856 21.4827C58.3919 21.6333 58.1337 21.7086 57.8218 21.7086C57.5959 21.7086 57.4022 21.6764 57.2409 21.6226C57.0795 21.5688 56.9289 21.4612 56.7891 21.3214L57.0903 21.0309C57.1871 21.1277 57.3054 21.203 57.4238 21.2461C57.5421 21.2891 57.6819 21.3106 57.8325 21.3106C58.0262 21.3106 58.1768 21.2676 58.2736 21.1923C58.3812 21.117 58.435 20.9986 58.435 20.8588C58.435 20.7297 58.3919 20.6221 58.3166 20.5576L58.1983 20.4823L58.0047 20.4393L57.6604 20.3855C57.4237 20.3532 57.2409 20.2779 57.101 20.1488C56.9612 20.0197 56.8859 19.8261 56.8859 19.5894C56.8859 19.3312 56.9719 19.1269 57.1441 18.9655C57.3162 18.8041 57.5528 18.7288 57.8648 18.7288C58.2306 18.7288 58.5318 18.8364 58.7684 19.0623L58.4887 19.342C58.4027 19.2559 58.3059 19.2022 58.209 19.1699C58.1015 19.1376 57.9831 19.1161 57.854 19.1161C57.6819 19.1161 57.5528 19.1591 57.4668 19.2452C57.37 19.3312 57.3269 19.4388 57.3269 19.5679C57.3269 19.6862 57.3592 19.7723 57.4345 19.8368C57.5098 19.9014 57.6174 19.9444 57.7572 19.9659L58.0907 20.0197C58.2198 20.0412 58.3274 20.0628 58.4134 20.095L58.6393 20.2349C58.8007 20.3747 58.876 20.5791 58.876 20.8373V20.8588Z" fill="#595857"/>
<path d="M61.3281 19.1695H60.5213V21.6975H60.0802V19.1695H59.2734V18.7715H61.3281V19.1695Z" fill="#595857"/>
<path d="M64.0284 21.6975H63.5121L62.8989 20.4604H62.3395V21.6975H61.8984V18.7715H63.0387C63.3077 18.7715 63.5336 18.8468 63.6949 19.0081C63.8563 19.1695 63.9423 19.3739 63.9423 19.6213C63.9423 19.8257 63.8886 19.9871 63.781 20.1269C63.6734 20.2668 63.5336 20.3528 63.3614 20.3959L64.0392 21.6868L64.0284 21.6975ZM63.4905 19.6321C63.4905 19.4922 63.4475 19.3739 63.3507 19.2986C63.2646 19.2125 63.1355 19.1695 62.9849 19.1695H62.3287V20.0946H62.9849C63.1355 20.0946 63.2539 20.0516 63.3399 19.9763C63.426 19.8903 63.4798 19.7827 63.4798 19.6428L63.4905 19.6321Z" fill="#595857"/>
<path d="M65.0827 18.7715H64.6416V21.6975H65.0827V18.7715Z" fill="#595857"/>
<path d="M67.9014 20.8164C67.8476 21.1069 67.7293 21.322 67.5464 21.4834C67.3635 21.634 67.1269 21.72 66.8579 21.72C66.5567 21.72 66.2985 21.6125 66.0941 21.4081C65.9651 21.279 65.879 21.1176 65.8467 20.924C65.8252 20.8057 65.8145 20.5798 65.8145 20.2248C65.8145 19.8698 65.8252 19.6546 65.8467 19.5363C65.879 19.3427 65.9651 19.1813 66.0941 19.0522C66.2985 18.8478 66.5567 18.7402 66.8579 18.7402C67.1269 18.7402 67.3635 18.8155 67.5464 18.9769C67.7293 19.1275 67.8476 19.3534 67.9014 19.6439H67.4496C67.4173 19.4825 67.3528 19.3642 67.256 19.2781C67.1484 19.1813 67.0193 19.1383 66.8579 19.1383C66.675 19.1383 66.5352 19.192 66.4276 19.3104C66.3523 19.3857 66.3093 19.4825 66.2878 19.6116C66.2663 19.7299 66.2555 19.9343 66.2555 20.2248C66.2555 20.5152 66.2663 20.7304 66.2878 20.8487C66.3093 20.967 66.3631 21.0638 66.4276 21.1391C66.5352 21.2575 66.6858 21.3113 66.8579 21.3113C67.0193 21.3113 67.1484 21.2682 67.2452 21.1714C67.342 21.0854 67.4173 20.9563 67.4496 20.8057H67.9014V20.8164Z" fill="#595857"/>
<path d="M70.3535 19.1695H69.5467V21.6975H69.1056V19.1695H68.2988V18.7715H70.3535V19.1695Z" fill="#595857"/>
<path d="M27.162 12.6406C27.162 10.9194 24.8061 9.40258 21.2454 8.52047C22.2673 4.99203 22.1383 2.19509 20.643 1.3345C19.1477 0.473898 16.6627 1.75404 14.124 4.40037C11.5852 1.75404 9.10023 0.473898 7.60495 1.3345C6.10967 2.19509 5.98058 4.99203 7.00253 8.52047C3.44182 9.40258 1.08594 10.9086 1.08594 12.6406C1.08594 14.3725 3.44182 15.8786 7.00253 16.7607C5.98058 20.2891 6.12042 23.0861 7.60495 23.9466C9.10023 24.8072 11.5852 23.5271 14.124 20.8808C16.6627 23.5271 19.1477 24.818 20.643 23.9466C22.1383 23.0861 22.2673 20.2891 21.2454 16.7607C24.8061 15.8786 27.162 14.3618 27.162 12.6406Z" fill="white"/>
<path d="M27.1626 12.64H28.2383C28.2383 11.9623 28.0016 11.3168 27.6251 10.779C27.055 9.97215 26.2159 9.33746 25.1832 8.79959C24.1505 8.26172 22.9026 7.82066 21.5041 7.47643L21.246 8.5199L22.2787 8.82111C22.7305 7.23976 22.9779 5.78751 22.9779 4.50737C22.9779 3.64677 22.8703 2.85072 22.5906 2.14073C22.3217 1.4415 21.8484 0.796051 21.1707 0.408783C20.6758 0.129089 20.1272 0 19.5786 0C18.5351 0 17.5131 0.408783 16.4804 1.04347C15.4477 1.67816 14.3935 2.57103 13.3392 3.66829L14.1138 4.41055L14.8883 3.66829C13.8341 2.57103 12.7798 1.67816 11.7471 1.04347C10.7144 0.408783 9.69246 0.0107574 8.64899 0C8.10036 0 7.54097 0.129089 7.05688 0.408783C6.37917 0.796051 5.90584 1.4415 5.6369 2.14073C5.35721 2.85072 5.24963 3.64677 5.24963 4.50737C5.24963 5.78751 5.49706 7.25052 5.94887 8.82111L6.98158 8.5199L6.7234 7.47643C4.85161 7.939 3.28102 8.56293 2.08694 9.36974C1.49529 9.77852 0.989685 10.2303 0.613174 10.779C0.236664 11.3168 0 11.9623 0 12.64C0 13.3177 0.236664 13.9632 0.613174 14.501C1.18332 15.3078 2.0224 15.9425 3.05511 16.4804C4.08783 17.0183 5.32494 17.4593 6.73416 17.8036L6.99234 16.7601L5.95963 16.4589C5.50781 18.0295 5.26039 19.4925 5.26039 20.7726C5.26039 21.644 5.36797 22.4293 5.64766 23.1393C5.9166 23.8385 6.38992 24.4839 7.06764 24.8712C7.56248 25.1617 8.12187 25.28 8.6705 25.28C9.71397 25.28 10.7359 24.8712 11.7686 24.2365C12.8014 23.6018 13.8556 22.709 14.9098 21.6117L14.1353 20.8694L13.3607 21.6117C14.415 22.709 15.4692 23.6018 16.5019 24.2365C17.5346 24.8712 18.5566 25.2692 19.6001 25.28C20.1487 25.28 20.7081 25.1509 21.2029 24.8712C21.8806 24.4839 22.354 23.8493 22.6229 23.1393C22.8918 22.4293 23.0102 21.6332 23.0102 20.7726C23.0102 19.4925 22.7628 18.0295 22.3109 16.4589L21.2782 16.7601L21.5364 17.8036C23.4082 17.341 24.9895 16.7171 26.1836 15.9103C26.7753 15.5015 27.2809 15.0497 27.6574 14.501C28.0339 13.9632 28.2706 13.3177 28.2706 12.64H26.1191C26.1191 12.8229 26.0653 13.0165 25.8824 13.2747C25.6242 13.662 25.0541 14.1353 24.215 14.5656C23.3759 14.9959 22.2894 15.3939 21.02 15.7059C20.7404 15.7704 20.4929 15.9641 20.3423 16.2115C20.1917 16.4589 20.1595 16.7709 20.2455 17.0506C20.6651 18.4813 20.8694 19.7614 20.8587 20.7726C20.8587 21.4503 20.7619 21.9882 20.622 22.354C20.4714 22.7197 20.3101 22.9026 20.1379 22.9994C20.0089 23.0747 19.8475 23.1178 19.6216 23.1285C19.1913 23.1285 18.4813 22.9134 17.653 22.4078C16.8246 21.9022 15.8887 21.1276 14.9313 20.1272C14.7269 19.912 14.4473 19.7937 14.1568 19.7937C13.8663 19.7937 13.5867 19.912 13.3823 20.1272C12.4249 21.1276 11.489 21.9022 10.6606 22.4078C9.83231 22.9241 9.12231 23.1393 8.69202 23.1285C8.45535 23.1285 8.30475 23.0855 8.17566 23.0102C7.99278 22.9026 7.83142 22.7305 7.68082 22.354C7.54097 21.9882 7.44415 21.4396 7.44415 20.7619C7.44415 19.7614 7.64854 18.4705 8.05733 17.0506C8.14339 16.7709 8.10036 16.4697 7.96051 16.2115C7.80991 15.9641 7.57324 15.7704 7.28279 15.7059C5.59387 15.2863 4.21692 14.7162 3.33481 14.1245C2.89375 13.8233 2.59254 13.5221 2.42043 13.2747C2.24831 13.0165 2.19452 12.8229 2.18376 12.64C2.18376 12.4571 2.23755 12.2635 2.42043 12.0053C2.6786 11.618 3.24875 11.1447 4.08783 10.7144C4.92691 10.2841 6.01341 9.88609 7.28279 9.57413C7.56248 9.50958 7.80991 9.31595 7.96051 9.06853C8.11111 8.82111 8.14339 8.50914 8.06809 8.22945C7.64854 6.79871 7.44415 5.51857 7.45491 4.51813C7.45491 3.84041 7.55173 3.29178 7.69157 2.92603C7.84218 2.54951 8.00354 2.3774 8.17566 2.28058C8.31551 2.20528 8.46611 2.16225 8.69202 2.16225C9.12231 2.16225 9.83231 2.3774 10.6606 2.883C11.489 3.3886 12.4249 4.16313 13.3823 5.16357C13.5867 5.37872 13.8663 5.49705 14.1568 5.49705C14.4473 5.49705 14.7269 5.37872 14.9313 5.16357C15.8887 4.16313 16.8246 3.3886 17.653 2.883C18.4813 2.36664 19.1913 2.15149 19.6216 2.16225C19.8582 2.16225 20.0089 2.20528 20.1379 2.28058C20.3101 2.38815 20.4822 2.56027 20.622 2.92603C20.7619 3.29178 20.8587 3.84041 20.8587 4.50737C20.8587 5.50781 20.6543 6.79871 20.2455 8.22945C20.1595 8.50914 20.2025 8.81035 20.3423 9.06853C20.4929 9.31595 20.7296 9.50958 21.02 9.57413C22.7197 9.99367 24.0967 10.5638 24.968 11.1555C25.4091 11.4567 25.7103 11.7579 25.8932 12.0053C26.076 12.2635 26.1191 12.4571 26.1298 12.64H27.2056H27.1626Z" fill="white"/>
<path d="M27.162 12.6396C27.162 10.9184 24.8061 9.40164 21.2454 8.51953C20.8689 9.81042 20.3418 11.2089 19.6641 12.6396C20.3418 14.0704 20.8689 15.4581 21.2454 16.7597C24.8061 15.8776 27.162 14.3608 27.162 12.6396Z" fill="#056FB8"/>
<path d="M6.99277 8.51953C3.43205 9.40164 1.07617 10.9077 1.07617 12.6396C1.07617 14.3716 3.43205 15.8776 6.99277 16.7597C7.36928 15.4688 7.89639 14.0704 8.57411 12.6396C7.89639 11.2089 7.36928 9.81042 6.99277 8.51953Z" fill="#056FB8"/>
<path d="M6.99241 16.7598C5.97046 20.2882 6.1103 23.0851 7.59483 23.9457C9.09012 24.8063 11.5751 23.5262 14.1138 20.8799C13.1779 19.9117 12.242 18.7499 11.3384 17.4482C9.75708 17.3192 8.29406 17.0825 6.98166 16.7598H6.99241Z" fill="#056FB8"/>
<path d="M21.2455 8.52047C22.2674 4.99203 22.1383 2.19509 20.643 1.3345C19.1478 0.473898 16.6628 1.75404 14.124 4.40037C15.0599 5.36854 15.9958 6.53034 16.8994 7.83199C18.4808 7.96108 19.9438 8.19775 21.2562 8.52047H21.2455Z" fill="#056FB8"/>
<path d="M14.125 4.40037C11.5863 1.75404 9.10129 0.473898 7.60601 1.3345C6.11072 2.19509 5.98163 4.99203 7.00359 8.52047C8.316 8.19775 9.77901 7.96108 11.3604 7.83199C12.264 6.53034 13.1999 5.3793 14.1358 4.40037H14.125Z" fill="#056FB8"/>
<path d="M14.125 20.8701C16.6638 23.5164 19.1487 24.8073 20.644 23.936C22.1393 23.0754 22.2684 20.2784 21.2464 16.75C19.9448 17.0727 18.471 17.3094 16.8897 17.4385C15.9861 18.7401 15.0502 19.9019 14.1143 20.8701H14.125Z" fill="#056FB8"/>
<path d="M16.8142 7.96109C15.9428 7.89655 15.05 7.85352 14.1248 7.85352C13.1997 7.85352 12.2961 7.89655 11.4247 7.96109C10.9299 8.68184 10.4458 9.44562 9.98322 10.2417C9.52064 11.0485 9.1011 11.8445 8.73535 12.6298C9.11186 13.4151 9.5314 14.2219 9.98322 15.018C10.4458 15.8248 10.9299 16.5778 11.4247 17.2986C12.2961 17.3739 13.1889 17.4061 14.1248 17.4061C15.0607 17.4061 15.9536 17.3631 16.8142 17.2986C17.309 16.5778 17.7931 15.8248 18.2557 15.018C18.7183 14.2219 19.1378 13.4151 19.5036 12.6298C19.127 11.8338 18.7183 11.0377 18.2557 10.2417C17.7931 9.43486 17.309 8.68184 16.8142 7.96109Z" fill="#E52E20"/>
<path d="M12.8339 9.31653C12.8339 9.31653 11.6506 11.0054 12.3928 12.4685C13.4793 14.6199 10.9944 16.0292 10.9729 16.0399H10.9083H10.8545L10.833 15.9539C10.833 15.9539 12.2315 14.1789 11.4032 12.8019C10.2844 10.9409 12.6618 9.25198 12.694 9.23047H12.8124L12.8447 9.30577L12.8339 9.31653Z" fill="white"/>
<path d="M15.1249 9.31653C15.1249 9.31653 13.9416 11.0054 14.6839 12.4685C15.7596 14.6199 13.2854 16.0292 13.2531 16.0399H13.1886H13.1348L13.1133 15.9539C13.1133 15.9539 14.5117 14.1789 13.6834 12.8019C12.5647 10.9409 14.942 9.25198 14.9743 9.23047H15.0927L15.1249 9.30577V9.31653Z" fill="white"/>
<path d="M17.4159 9.31653C17.4159 9.31653 16.2326 11.0054 16.9749 12.4685C18.0506 14.6199 15.5657 16.0292 15.5441 16.0399H15.4796H15.4258L15.4043 15.9539C15.4043 15.9539 16.8028 14.1789 15.9744 12.8019C14.8557 10.9409 17.2331 9.25198 17.2546 9.23047H17.3837L17.4159 9.30577V9.31653Z" fill="white"/>
</g>
<defs>
<clipPath id="clip0_1_7">
<rect width="71" height="26" fill="white"/>
</clipPath>
</defs>
</svg>
