<svg width="53" height="53" viewBox="0 0 53 53" fill="none" xmlns="http://www.w3.org/2000/svg">
<circle cx="26.5" cy="26.5" r="26.5" fill="#142143"/>
<g clip-path="url(#clip0_2079_33)">
<path d="M15.6157 33.6413C16.757 34.2823 25.0182 39.1209 30.8926 35.3917C36.767 31.6625 36.4429 25.2377 36.4429 22.2936C36.9751 21.1609 38.0993 20.585 38.0993 17.519C36.995 18.5554 35.8975 18.9081 34.8066 18.5769C33.7379 16.9213 32.2675 16.189 30.3953 16.3801C27.5872 16.6668 26.5598 19.466 26.8622 23.0875C22.5323 25.3123 19.1371 21.4748 17.3873 18.5769C16.8027 20.8591 16.2389 23.5991 17.3873 26.6301C18.1529 28.6507 19.9932 30.359 22.9083 31.7551C19.954 33.3819 17.5232 34.0106 15.6157 33.6413Z" fill="white"/>
</g>
<defs>
<clipPath id="clip0_2079_33">
<rect width="24" height="21" fill="white" transform="translate(15 16)"/>
</clipPath>
</defs>
</svg>
