<svg width="53" height="53" viewBox="0 0 53 53" fill="none" xmlns="http://www.w3.org/2000/svg">
<circle cx="26.5" cy="26.5" r="26.5" fill="#142143"/>
<g clip-path="url(#clip0_2079_35)">
<path fill-rule="evenodd" clip-rule="evenodd" d="M26.8575 17C24.704 17 21.6893 17.0958 17.8132 17.2874C15.7148 17.3911 14.0173 19.0183 13.8413 21.0946C13.6616 23.2143 13.5718 25.0681 13.5718 26.656C13.5718 28.2632 13.6638 30.1428 13.8479 32.2948C14.0233 34.3454 15.6838 35.9609 17.7545 36.0952C21.0681 36.3101 24.1024 36.4176 26.8575 36.4176C29.613 36.4176 32.6484 36.3101 35.9638 36.0951C38.0352 35.9607 39.6961 34.3443 39.8707 32.2929C40.0524 30.1568 40.1432 28.2779 40.1432 26.656C40.1432 25.0537 40.0546 23.2006 39.8772 21.0966C39.7022 19.0194 38.0043 17.3912 35.9051 17.2874C32.0271 17.0958 29.0112 17 26.8575 17ZM24.813 29.703V23.7159C24.813 23.5999 24.8505 23.4866 24.9205 23.3904C25.1155 23.1231 25.5084 23.052 25.7981 23.2318L30.6653 26.2511C30.7346 26.2941 30.794 26.3493 30.84 26.4135C31.0325 26.6823 30.9525 27.0442 30.6612 27.2219L25.794 30.1897C25.6906 30.2527 25.5693 30.2863 25.4453 30.2863C25.0961 30.2863 24.813 30.0252 24.813 29.703Z" fill="white"/>
</g>
<defs>
<clipPath id="clip0_2079_35">
<rect width="28" height="20" fill="white" transform="translate(13 17)"/>
</clipPath>
</defs>
</svg>
